<svg height="512" viewBox="0 0 60 60" width="512" xmlns="http://www.w3.org/2000/svg"><g id="Page-1" fill="none" fill-rule="evenodd"><g id="010---Meal-Time" fill-rule="nonzero" transform="translate(-1 -1)"><path id="Shape" d="m49.26 53.5c-5.1479951 4.2199218-11.6034788 6.517876-18.26 6.5-14.9818748-.0043746-27.49428974-11.4200407-28.86916161-26.3386975s8.84042751-28.42886104 23.56916161-31.1713025c-.444714.37538511-.7009091.92803465-.7 1.51v3.77c-7.2622014 1.87138009-13.2310836 7.0318218-16.13234104 13.9473361-2.90125748 6.9155142-2.40089834 14.789989 1.35234104 21.2826639h.01c2.0968664 3.6470469 5.1229531 6.6731336 8.77 8.77v.01c8.4425299 4.8886124 19.0078818 4.1605133 26.7-1.84z" fill="#02a9f4"/><path id="Shape" d="m60 31c.008404 6.8326874-2.4043428 13.4473692-6.81 18.67-1.0304202-1.3668846-2.1319381-2.6786924-3.3-3.93 6.0447596-7.6859194 6.7935732-18.2802455 1.89-26.74-3.2219566-5.5713508-8.5476242-9.61424595-14.78-11.22v-3.78c.0028231-.53059053-.2101411-1.0395388-.59-1.41-.0341348-.03601638-.070903-.06944206-.11-.1 13.739786 2.54755767 23.7056534 14.5360336 23.7 28.51z" fill="#02a9f4"/><path id="Shape" d="m36.3 2.49c.039097.03055794.0758652.06398362.11.1.2276495.22544616.3959842.50371373.49.81 8.7862011 2.83317334 15.6985661 9.6803034 18.6149224 18.4392456 2.9163563 8.7589421 1.4882322 18.3831014-3.8459224 25.9177544.58.6886667 1.087 1.3263333 1.521 1.913 6.6428176-7.8964133 8.5892834-18.7278861 5.1113468-28.4430457-3.4779365-9.7151597-11.8563286-16.85042963-22.0013468-18.7369543z" fill="#0377bc"/><path id="Shape" d="m37 4v11c.0014703 1.8238506-1.233358 3.416779-3 3.87-.3257307.0893041-.6622628.1330533-1 .13h-4c-.3377372.0030533-.6742693-.0406959-1-.13-1.766642-.453221-3.0014703-2.0461494-3-3.87v-11c-.0009091-.58196535.255286-1.13461489.7-1.51.7870916-.69010995 1.9759103-.6462421 2.71.1.3798589.3704612.5928231.87940947.59 1.41.0027598-1.02606058.7793599-1.88463519 1.8-1.99.133-.01333333.267-.01333333.4 0 .4585925.04644312.8865663.2515876 1.21.58.3798589.3704612.5928231.87940947.59 1.41.0032948-1.10320187.8967981-1.9967052 2-2 .478964-.00274728.9420134.17178672 1.3.49.039097.03055794.0758652.06398362.11.1.3798589.3704612.5928231.87940947.59 1.41z" fill="#cfd8dc"/><path id="Shape" d="m30 4c.0036613-.9113101.6229174-1.70491194 1.506-1.93-.1002328-.02814483-.2025606-.04820909-.306-.06-.133-.01333333-.267-.01333333-.4 0-.5039713.05406833-.9686156.29747046-1.3.681.322931.35941255.501086.82582237.5 1.309z" fill="#9e9e9e"/><path id="Shape" d="m36.41 2.59c-.0341348-.03601638-.070903-.06944206-.11-.1-.3579866-.31821328-.821036-.49274728-1.3-.49-.578046.00391352-1.125701.25948587-1.5.7.3210205.3570046.4990534.81989004.5 1.3v11c.0014703 1.8238506-1.233358 3.416779-3 3.87-.3257307.0893041-.6622628.1330533-1 .1301494l3-.0001494c.3377372.0030533.6742693-.0406959 1-.13 1.766642-.453221 3.0014703-2.0461494 3-3.87v-11c.0028231-.53059053-.2101411-1.0395388-.59-1.41z" fill="#9e9e9e"/><path id="Shape" d="m26 4c.0029536-.90957849.6192985-1.70260897 1.5-1.93-.1629968-.04457379-.3310291-.06809832-.5-.07-.478964-.00274728-.9420134.17178672-1.3.49-.0719495.06405259-.1388171.13359491-.2.208.3218087.35731656.4999245.82112999.5 1.302z" fill="#9e9e9e"/><path id="Shape" d="m45.7 49.94c-7.6921182 6.0005133-18.2574701 6.7286124-26.7 1.84v-.01c-3.6470469-2.0968664-6.6731336-5.1229531-8.77-8.77h-.01c-4.29338474-7.423964-4.29338474-16.576036 0-24 3.217784-5.5770438 8.5446379-9.62444364 14.78-11.23v7.23c-.0014703 1.8238506 1.233358 3.416779 3 3.87v9.49c-1.0101594 1.1441198-1.279968 2.7639006-.6952151 4.1736865.5847528 1.4097859 1.9218186 2.3630654 3.4452151 2.4563135l8.03 8.03z" fill="#f5f5f5"/><path id="Shape" d="m34 18.87v9.49c-.7574235-.8642798-1.850796-1.3599087-3-1.3599087s-2.2425765.4956289-3 1.3599087v-9.49c.3257307.0893041.6622628.1330533 1 .13h4c.3377372.0030533.6742693-.0406959 1-.13z" fill="#9e9e9e"/><path id="Shape" d="m54.33 57.16c-.1865093.1904993-.4434554.2954491-.71.29-.2628658.0015448-.5152412-.1030107-.7-.29l-7.22-7.22-6.92-6.92 4.24-4.24 4.24 4.24c.98.98 1.85 1.88 2.63 2.72 1.1680619 1.2513076 2.2695798 2.5631154 3.3 3.93 3.18 4.34 2.54 6.1 1.14 7.49z" fill="#cfd8dc"/><path id="Shape" d="m53.19 49.67c-1.0304202-1.3668846-2.1319381-2.6786924-3.3-3.93-.78-.84-1.65-1.74-2.63-2.72l-4.24-4.24-1.5 1.5 2.74 2.74c.98.98 1.85 1.88 2.63 2.72 1.1680619 1.2513076 2.2695798 2.5631154 3.3 3.93 2.556 3.489 2.642 5.309 1.851 6.611l.879.879c.1847588.1869893.4371342.2915448.7.29.2665446.0054491.5234907-.0995007.71-.29 1.4-1.39 2.04-3.15-1.14-7.49z" fill="#9e9e9e"/><path id="Shape" d="m43.02 38.78-4.24 4.24-8.03-8.03c.0830589.0083229.1665417.0116622.25.01 2.209139 0 4-1.790861 4-4 .0016622-.0834583-.0016771-.1669411-.01-.25z" fill="#9e9e9e"/><path id="Shape" d="m55 31c.0107393 5.3495209-1.7904146 10.5450217-5.11 14.74-.78-.84-1.65-1.74-2.63-2.72l-4.24-4.24-8.03-8.03c-.0527573-.8851188-.4014175-1.7268339-.99-2.39v-9.49c1.766642-.453221 3.0014703-2.0461494 3-3.87v-7.22c10.594095 2.7280849 17.9989037 12.2802881 18 23.22z" fill="#f5f5f5"/><path id="Shape" d="m51.78 19c-3.2219566-5.5713508-8.5476242-9.61424595-14.78-11.22v.991c6.6267142 2.6620254 11.7169337 8.1463642 13.8782969 14.9528487 2.1613631 6.8064845 1.1676593 14.2227409-2.7092969 20.2201513.612.625 1.2 1.231 1.721 1.8 6.0465418-7.686755 6.7953981-18.2832707 1.89-26.744z" fill="#cfd8dc"/><path id="Shape" d="m35 31c0 2.209139-1.790861 4-4 4-.0834583.0016622-.1669411-.0016771-.25-.01-1.8094457-.1099566-3.3187348-1.4230237-3.6780237-3.1998455-.3592889-1.7768217.5212565-3.5731342 2.1458226-4.377478 1.6245662-.8043439 3.5869581-.4156065 4.7822011.9473235.5885825.6631661.9372427 1.5048812.99 2.39.0083229.0830589.0116622.1665417.01.25z" fill="#ffeb3a"/><path id="Shape" d="m34.99 30.75c-.0685611-1.2874106-.7593885-2.4609073-1.8517847-3.145595s-2.44967-.7948916-3.6382153-.295405c.5745569.2296052 1.0880159.5893688 1.5 1.051.5885825.6631661.9372427 1.5048812.99 2.39.0083229.0830589.0116622.1665417.01.25-.0001446 1.6223403-.9801906 3.0839163-2.481 3.7.3921766.1622316.8077407.2608057 1.231.292.0830989.0076553.1665817.0103268.25.008 2.209139 0 4-1.790861 4-4 .0016622-.0834583-.0016771-.1669411-.01-.25z" fill="#fdd834"/><g fill="#000"><path id="Shape" d="m31 61c5.4509467.0048416 10.7995873-1.4799698 15.468-4.294.4727557-.2858074.6243073-.9007443.3385-1.3735-.2858074-.4727557-.9007443-.6243073-1.3735-.3385-9.1168221 5.4719881-20.5463658 5.3079005-29.5023464-.4235487-8.95598061-5.7314492-13.8927754-16.0411267-12.74303103-26.6117079 1.14974438-10.5705812 8.18760513-19.57779553 18.16637743-23.2497434.5185954-.1902621.7847621-.76490462.5945-1.2835s-.7649046-.7847621-1.2835-.5945c-13.66160545 5.00518122-21.76237769 19.0917069-19.21717952 33.4169737s15.00256612 24.7591875 29.55217952 24.7520263z"/><path id="Shape" d="m40.646 4.709c7.8987606 2.9021094 14.0746949 9.2009813 16.8205732 17.1554021s1.7708434 16.7218183-2.6555732 23.8785979c-.188279.3036758-.2002468.6847294-.0313954.9996216s.4928696.5157835.85.527.6931164-.1689458.8813954-.4726216c4.7438211-7.6677651 5.7892788-17.061914 2.8473099-25.5850166-2.941969-8.5231027-9.5596569-15.27211898-18.0233099-18.3809834-.5185954-.1902621-1.0932379.07590462-1.2835.5945s.0759046 1.0932379.5945 1.2835z"/><path id="Shape" d="m27 19.58v8.451c-1.060765 1.4025923-1.2990128 3.2622024-.6260964 4.8869088s2.1562548 2.7712747 3.8980964 3.0130912l7.793 7.793.006.009 14.142 14.137c.375096.375248.8839266.5860729 1.4145.5860729s1.039404-.2108249 1.4145-.5860729c3.132-3.133 1.281-7.2-7.071-15.556l-4.243-4.243h-.007l-7.795-7.8c-.1185064-.8118015-.4366887-1.5814865-.926-2.24v-8.453c1.8232449-.7914578 3.0020947-2.5903825 3-4.578v-11c.0055929-.79634152-.3132016-1.56065401-.883-2.117-.0473825-.05114089-.0988894-.09829973-.154-.141-1.1340292-1.00215374-2.8413543-.98748749-3.958.034-.4537412-.41979936-1.0297522-.68362921-1.644-.753-.2192636-.02848844-.4411111-.03117344-.661-.008-.6361381.06489919-1.2343999.33317016-1.706.765-1.1060422-1.01760018-2.7999474-1.04213705-3.935-.057-.6738764.56388159-1.0619658 1.3983288-1.059 2.277v11c-.0028927 1.9883434 1.1760879 3.7882537 3 4.58zm11.78 22.02-5.961-5.96c1.2938881-.508197 2.317803-1.5321119 2.826-2.826l5.955 5.966zm-5.78-15.176c-1.2734085-.565331-2.7265915-.565331-4 0v-6.424h4zm-5 4.576c0-1.6568542 1.3431458-3 3-3s3 1.3431458 3 3-1.3431458 3-3 3-3-1.3431458-3-3zm25.627 25.456-13.434-13.435 2.828-2.828 3.536 3.535c9.899 9.899 8.129 11.672 7.07 12.728zm-27.627-52.456c.0026257-.29512177.1354827-.57401167.363-.762.3970109-.33838944.9890019-.30857063 1.35.068.1854514.18309032.2889672.4334037.287.694v8c0 .5522847.4477153 1 1 1s1-.4477153 1-1v-8c.0065783-.52109683.4059946-.95289823.925-1 .0562489-.00436167.1127511-.00436167.169 0 .5152793.04864655.9082912.48243459.906 1v8c0 .5522847.4477153 1 1 1s1-.4477153 1-1v-8c0-.55228475.4477153-1 1-1 .2343759-.00169821.4611581.0830336.637.238.0241531.02395214.0495198.04664867.076.068.1854514.18309032.2889672.4334037.287.694v11c.0007384 1.3756601-.9360523 2.5748017-2.271 2.907-.2374602.0649138-.482848.0962184-.729.093h-4c-.2547822.0022381-.5086094-.031426-.754-.1-1.3239334-.3390293-2.2489142-1.5333501-2.246-2.9z"/><path id="Shape" d="m21.909 8.774c-.2298853-.50188174-.822966-.72255251-1.325-.493-.687.314-1.348.667-2 1.038-.029.014-.06.014-.088.03s-.051.05-.081.071c-3.7138271 2.1714284-6.8044684 5.2644807-8.973 8.98-.03311068.0309992-.06386268.0644253-.092.1-.01615606.0379772-.02952476.0770806-.04.117-4.42052093 7.6869062-4.41290044 17.1462262.02 24.826.01.018.009.039.02.057s.036.045.053.069c2.1878191 3.7430211 5.3055626 6.85732 9.051 9.041.017.012.027.03.046.041.0283784.0134504.057415.0254655.087.036 7.4524318 4.2799551 16.5833533 4.4216516 24.165.375.3246243-.1631678.5352091-.489569.5500667-.8525895.0148577-.3630206-.1683498-.7055388-.4785544-.8946888-.3102047-.18915-.6985956-.1951688-1.0145123-.0157217-3.0290611 1.6118238-6.3808918 2.5241888-9.809 2.67v-1.969c0-.5522847-.4477153-1-1-1s-1 .4477153-1 1v1.975c-3.3573514-.1426222-6.6418273-1.0246059-9.619-2.583l.985-1.705c.1814844-.3095704.1831833-.6926495.0044519-1.0038174-.1787315-.311168-.5104885-.5027136-.8693336-.5019247s-.6897567.1937913-.8671183.5057421l-.983 1.7c-2.8289556-1.8089591-5.2310409-4.2110444-7.04-7.04l1.7-.983c.3119508-.1773616.5049532-.5082732.5057421-.8671183s-.1907567-.6906021-.5019247-.8693336c-.3111679-.1787314-.694247-.1770325-1.0038174.0044519l-1.7.985c-1.55915328-2.9763252-2.44215638-6.2600997-2.586-9.617h1.975c.5522847 0 1-.4477153 1-1s-.4477153-1-1-1h-1.963c.14663634-3.3545075 1.02841892-6.6358447 2.583-9.612l1.693.978c.3095704.1814844.6926495.1831833 1.0038174.0044519.311168-.1787315.5027136-.5104885.5019247-.8693336s-.1937913-.6897567-.5057421-.8671183l-1.7-.982c1.8041691-2.8323329 4.2059493-5.2358196 7.037-7.042l.984 1.7c.1773616.3119508.5082732.5049532.8671183.5057421s.6906021-.1907567.8693336-.5019247c.1787314-.3111679.1770325-.694247-.0044519-1.0038174l-.979-1.7c.34-.177.678-.357 1.029-.518.4979386-.22982283.7178752-.81780749.493-1.318z"/><path id="Shape" d="m51.685 43.18c.2333898.1259812.507267.1540872.7613797.0781346.2541128-.0759525.4676449-.2497416.5936203-.4831346 4.067716-7.5716332 3.9353576-16.7073858-.35-24.158-.0104752-.0399194-.0238439-.0790228-.04-.117-.027783-.0355679-.0582022-.0689955-.091-.1-2.1700998-3.716004-5.2624794-6.8090725-8.978-8.98-.03-.021-.049-.052-.081-.071-.0288195-.01116126-.0581912-.02084058-.088-.029-.648-.372-1.309-.725-2-1.039-.4973717-.20418962-1.067176.02144191-1.2899223.5107844-.2227463.4893425-.0186989 1.06722756.4619223 1.3082156.351.161.689.341 1.029.518l-.979 1.7c-.1814844.3095704-.1831833.6926495-.0044519 1.0038174.1787315.311168.5104885.5027136.8693336.5019247s.6897567-.1937913.8671183-.5057421l.984-1.7c2.8310507 1.8061804 5.2328309 4.2096671 7.037 7.042l-1.7.982c-.3119508.1773616-.5049532.5082732-.5057421.8671183s.1907567.6906021.5019247.8693336c.3111679.1787314.694247.1770325 1.0038174-.0044519l1.693-.978c1.5534524 2.9737326 2.4352019 6.252216 2.583 9.604h-1.963c-.5522847 0-1 .4477153-1 1s.4477153 1 1 1h1.969c-.1436425 3.4359235-1.0629322 6.7948008-2.689 9.825-.1259812.2333898-.1540872.507267-.0781346.7613797.0759525.2541128.2497416.4676449.4831346.5936203z"/></g></g></g></svg>