<svg id="Filled" height="512" viewBox="0 0 512 512" width="512" xmlns="http://www.w3.org/2000/svg"><path d="m24 88h144v144h-144z" fill="#e74444"/><path d="m24 88h144a0 0 0 0 1 0 0 32 32 0 0 1 -32 32h-80a32 32 0 0 1 -32-32 0 0 0 0 1 0 0z" fill="#ea8333"/><path d="m56 192h80v40h-80z" fill="#ea8333"/><path d="m56 168h80v32h-80z" fill="#ea8333"/><circle cx="112" cy="344" fill="#c2c5c6" r="80"/><circle cx="408" cy="344" fill="#c2c5c6" r="80"/><g fill="#6a7073"><circle cx="112" cy="344" r="16"/><circle cx="256" cy="344" r="32"/><path d="m168 168h48a32 32 0 0 1 32 32 0 0 0 0 1 0 0h-80a0 0 0 0 1 0 0v-32a0 0 0 0 1 0 0z"/><circle cx="408" cy="344" r="16"/></g><path d="m72 344a40.045 40.045 0 0 1 40-40 8 8 0 0 0 0-16 56.063 56.063 0 0 0 -56 56 8 8 0 0 0 16 0z"/><path d="m98.666 381.726a40.323 40.323 0 0 1 -20-15.613 8 8 0 1 0 -13.324 8.858 56.424 56.424 0 0 0 28 21.84 8 8 0 1 0 5.332-15.085z"/><path d="m408 256a87.768 87.768 0 0 0 -23.725 3.252l-29.59-77.677 48.615-12.153c.559 3.683.448 10.048-2.886 20.048a8 8 0 0 0 15.18 5.06c9.1-27.307-.014-38.267-1.933-40.187a8 8 0 0 0 -7.6-2.1l-64 16a8 8 0 0 0 -5.536 10.609l7.327 19.232-123.052 32.38-8.984-22.464h36.184a8 8 0 0 0 8-8 40.045 40.045 0 0 0 -40-40h-40v-72a8 8 0 0 0 -8-8h-144a8 8 0 0 0 -8 8v144a8 8 0 0 0 8 8h140l17.437 23.249-13.156 13.151a87.966 87.966 0 1 0 31.352 75.6h17.172a40.119 40.119 0 0 0 31.195 31.2v16.8h-8a8 8 0 0 0 0 16h32a8 8 0 0 0 0-16h-8v-16.8a39.965 39.965 0 0 0 24.623-62.3l72.538-77.377 8.17 21.445a87.977 87.977 0 1 0 38.669-8.968zm-149.112 73.223-3.541-9.206c.218-.006.434-.017.653-.017a23.859 23.859 0 0 1 9.635 2.026zm-14.536 6.777h-10.976a24.077 24.077 0 0 1 7.041-10.23zm-27.547 0h-17.172a87.609 87.609 0 0 0 -20.033-48.281l33.357-33.357 21.52 55.952a40.1 40.1 0 0 0 -17.672 25.686zm-82.181 0a24.147 24.147 0 0 0 -.969-2.341l34.565-34.565a71.658 71.658 0 0 1 15.325 36.906zm-14.624 8a8 8 0 1 1 -8-8 8.009 8.009 0 0 1 8 8zm96-168a24.042 24.042 0 0 1 22.629 16h-62.629v-16zm-57.376-80a24.039 24.039 0 0 1 -22.624 16h-80a24.039 24.039 0 0 1 -22.624-16zm-30.624 96h-64v-16h64zm-64 16h64v16h-64zm80 16v-56a8 8 0 0 0 -8-8h-80a8 8 0 0 0 -8 8v56h-16v-104.022a39.788 39.788 0 0 0 24 8.022h80a39.788 39.788 0 0 0 24-8.022v104.022zm32 5.333v-21.333h18.584l12.029 30.073-13.747 13.747zm-64 186.667a72 72 0 1 1 44.906-128.22l-34.565 34.565a24 24 0 1 0 12.283 29.655h48.921a72.1 72.1 0 0 1 -71.545 64zm121.376-64h14.624v14.624a24.119 24.119 0 0 1 -14.624-14.624zm46.624-8a24.039 24.039 0 0 1 -16 22.624v-19.461l13.305-14.192a23.843 23.843 0 0 1 2.695 11.029zm-3.043-34.052a39.825 39.825 0 0 0 -27.557-5.394l-22.727-59.091 122.906-32.346 5.246 13.769zm131.043 106.052a71.979 71.979 0 0 1 -32.938-135.991l5.738 15.064a56.035 56.035 0 0 0 -28.8 48.927 8 8 0 0 0 16 0 40 40 0 0 1 18.58-33.755l5.9 15.474a23.982 23.982 0 1 0 15.52-5.719c-.194 0-.385.01-.577.015l-5.9-15.483a40.068 40.068 0 0 1 6.477-.532 8 8 0 0 0 0-16 55.915 55.915 0 0 0 -12.252 1.367l-5.748-15.088a72 72 0 1 1 18 141.721zm0-80a8 8 0 1 1 -8 8 8.009 8.009 0 0 1 8-8z"/><path d="m394.666 381.726a40.323 40.323 0 0 1 -20-15.613 8 8 0 1 0 -13.324 8.858 56.424 56.424 0 0 0 28 21.84 8 8 0 1 0 5.332-15.085z"/></svg>