<svg id="Layer_3" enable-background="new 0 0 64 64" height="512" viewBox="0 0 64 64" width="512" xmlns="http://www.w3.org/2000/svg"><g><g><circle cx="32" cy="32" fill="#c7e2fc" r="30"/></g><g><circle cx="32" cy="32" fill="#ebf7fe" r="23"/></g><g><path d="m27 29 1 18c0 1.657-1.343 3-3 3-1.657 0-3-1.343-3-3l1-18" fill="#a8b0bc"/></g><g><path d="m42 29 1 18c0 1.657-1.343 3-3 3-1.657 0-3-1.343-3-3l1-18" fill="#a8b0bc"/></g><g><ellipse cx="25" cy="22" fill="#c1c8d1" rx="6" ry="7"/></g><g><path d="m25 30c-3.859 0-7-3.589-7-8s3.141-8 7-8 7 3.589 7 8-3.141 8-7 8zm0-14c-2.757 0-5 2.691-5 6s2.243 6 5 6 5-2.691 5-6-2.243-6-5-6z"/></g><g><path d="m25 51c-2.206 0-4-1.794-4-4l1.002-18.056 1.996.111-1 18c.002 1.048.899 1.945 2.002 1.945s2-.897 2-2l-.998-17.944 1.996-.111 1 18c.002 2.261-1.792 4.055-3.998 4.055z"/></g><g><path d="m40 51c-2.206 0-4-1.794-4-4l1.002-18.056 1.996.111-1 18c.002 1.048.899 1.945 2.002 1.945s2-.897 2-2l-.998-17.944 1.996-.111 1 18c.002 2.261-1.792 4.055-3.998 4.055z"/></g><g><path d="m40 30c-3.309 0-6-2.691-6-6v-10h2v10c0 2.206 1.794 4 4 4s4-1.794 4-4v-10h2v10c0 3.309-2.691 6-6 6z"/></g><g><path d="m35 22h10v2h-10z"/></g><g><path d="m39 14h2v9h-2z"/></g><g><path d="m32 63c-17.094 0-31-13.906-31-31 0-17.093 13.906-31 31-31s31 13.907 31 31c0 17.094-13.906 31-31 31zm0-60c-15.99 0-29 13.009-29 29 0 15.99 13.01 29 29 29s29-13.01 29-29c0-15.991-13.01-29-29-29z"/></g><g><path d="m32 59v-2c13.785 0 25-11.215 25-25h2c0 14.888-12.112 27-27 27z"/></g><g><path d="m7 32h-2c0-14.888 12.112-27 27-27v2c-13.785 0-25 11.215-25 25z"/></g></g></svg>